# xmcd
#
# Track frame offsets:
#	182
#	34005
#	55350
#	83550
#	110595
#	142635
#	168370
#	193712
#	217570
#	255132
#	289282
#	309655
#
# Disc length: 4431 seconds
#
# Revision: 1
# Processed by: cddbd v1.4PL0 Copyright (c) Steve Scherf et al.
# Submitted via: EasyCDDAExtractor 5.1.0
#
DISCID=98114d0c
DTITLE=Joe Whitney and The Wright Thing (Extended Family) - Live
DYEAR=1900
DGENRE=Soul
TTITLE0=Wicked Game
TTITLE1=Master Blaster
TTITLE2=Revolution
TTITLE3=Step (Shake) It Up
TTITLE4=Since I Fell For You
TTITLE5=(You Don't Love Me) No No NO
TTITLE6=Killer
TTITLE7=I Wish
TTITLE8=Rapper's Goodtime Vibe
TTITLE9=I Believe I Can Fly (For Laura And Jade)
TTITLE10=Second Time Around
TTITLE11=Keep Your Soul
EXTD=
EXTT0=
EXTT1=
EXTT2=
EXTT3=
EXTT4=
EXTT5=
EXTT6=
EXTT7=
EXTT8=
EXTT9=
EXTT10=
EXTT11=
PLAYORDER=
